<svg id="svg" version="1.1" xmlns="http://www.w3.org/2000/svg" xmlns:xlink="http://www.w3.org/1999/xlink" width="75" height="75" viewBox="0, 0, 400,400"><g id="svgg"><path id="path0" d="M57.650 99.100 C 60.804 109.490,69.236 140.482,69.249 141.729 C 69.310 147.665,61.097 149.506,58.642 144.107 C 58.423 143.624,55.644 133.941,52.468 122.589 C 49.292 111.237,46.600 101.949,46.485 101.948 C 45.307 101.943,39.936 106.857,37.736 109.952 C 28.476 122.977,28.172 142.508,36.919 162.360 C 45.161 181.063,58.797 188.650,75.462 183.805 C 95.179 178.072,102.947 149.961,91.777 124.764 C 86.268 112.335,76.208 102.708,65.630 99.740 C 62.140 98.760,57.433 98.383,57.650 99.100 M338.431 98.884 C 325.487 100.934,314.077 110.950,307.732 125.833 C 297.352 150.181,305.013 177.747,323.783 183.587 C 344.468 190.022,360.598 177.222,367.712 148.726 C 372.033 131.419,368.056 114.126,357.624 104.861 C 356.196 103.592,353.353 101.650,353.281 101.894 C 353.257 101.979,350.617 111.402,347.415 122.833 C 344.213 134.264,341.457 143.890,341.289 144.222 C 338.768 149.243,331.055 147.744,330.692 142.164 C 330.619 141.035,339.857 106.878,342.312 99.200 C 342.456 98.750,340.357 98.579,338.431 98.884 M192.404 160.143 C 155.165 162.339,124.595 180.691,119.531 203.890 C 116.336 218.529,123.999 233.549,140.280 244.565 L 142.728 246.222 144.616 245.462 C 168.973 235.660,211.596 233.886,242.254 241.397 C 248.545 242.939,257.232 245.856,256.939 246.329 C 256.208 247.513,265.670 240.217,268.574 237.358 C 304.280 202.209,258.915 156.222,192.404 160.143 M154.036 188.241 C 159.038 189.946,159.147 198.938,154.191 201.029 C 150.115 202.748,146.538 199.793,146.533 194.703 C 146.528 189.522,149.722 186.771,154.036 188.241 M250.384 188.457 C 254.043 190.333,254.796 197.333,251.628 200.011 C 249.473 201.832,246.286 201.838,244.140 200.024 C 241.949 198.172,241.510 192.637,243.361 190.210 C 245.017 188.039,248.078 187.275,250.384 188.457 M85.050 192.160 C 84.175 192.602,82.580 193.296,81.507 193.702 C 80.434 194.108,79.500 194.497,79.430 194.566 C 78.920 195.076,87.618 202.737,92.015 205.650 C 96.106 208.360,105.609 212.894,107.200 212.894 C 107.435 212.894,107.507 212.231,107.597 209.245 C 107.658 207.239,107.739 205.482,107.777 205.342 C 107.820 205.181,107.115 204.797,105.867 204.302 C 99.711 201.861,93.855 198.106,88.749 193.328 L 86.643 191.356 85.050 192.160 M311.544 193.045 C 306.288 197.983,300.519 201.706,294.095 204.305 C 292.592 204.913,292.165 205.171,292.201 205.444 C 292.227 205.638,292.309 207.394,292.383 209.345 C 292.456 211.297,292.584 212.894,292.666 212.894 C 292.748 212.894,293.701 212.585,294.783 212.208 C 301.013 210.039,307.307 206.524,312.744 202.180 C 315.270 200.161,320.766 194.738,320.511 194.515 C 320.417 194.433,319.620 194.116,318.741 193.811 C 317.861 193.506,316.287 192.828,315.242 192.305 L 313.343 191.355 311.544 193.045 M186.211 194.174 C 188.043 195.028,189.499 197.054,189.503 198.757 C 189.513 202.614,193.948 202.687,194.379 198.837 C 195.143 192.014,204.397 191.925,205.579 198.730 C 205.899 200.572,206.104 200.963,206.970 201.373 C 208.785 202.234,210.495 200.957,210.495 198.739 C 210.495 195.274,214.973 192.620,218.291 194.118 C 221.991 195.790,222.736 200.282,220.173 205.473 C 216.837 212.229,208.705 214.849,201.793 211.395 L 199.987 210.492 198.277 211.372 C 189.455 215.912,178.859 209.963,178.360 200.190 C 178.113 195.342,182.122 192.270,186.211 194.174 M161.428 206.830 C 165.535 209.029,165.526 214.959,161.413 216.998 C 160.661 217.371,160.169 217.391,152.008 217.391 L 143.397 217.391 142.420 216.787 C 138.237 214.201,138.963 207.886,143.601 206.510 C 145.060 206.078,160.542 206.355,161.428 206.830 M257.436 206.986 C 261.306 209.130,261.342 214.587,257.500 216.845 L 256.572 217.391 247.976 217.391 C 239.831 217.391,239.339 217.371,238.587 216.998 C 234.127 214.787,234.524 208.283,239.224 206.580 C 239.826 206.361,241.645 206.315,248.176 206.351 L 256.372 206.397 257.436 206.986 M122.719 247.501 C 112.270 256.144,105.456 267.782,104.327 278.912 C 103.917 282.955,105.163 285.037,108.002 285.053 C 110.517 285.068,111.705 283.589,111.963 280.121 C 112.661 270.775,119.091 260.067,128.436 252.687 C 130.407 251.130,130.379 251.377,128.724 250.093 C 127.958 249.499,126.655 248.397,125.830 247.644 C 124.041 246.013,124.493 246.034,122.719 247.501 M274.706 247.126 C 274.244 247.594,272.972 248.696,271.879 249.575 C 269.539 251.458,269.562 251.113,271.664 252.782 C 280.967 260.172,288.056 272.246,288.056 280.701 C 288.056 283.967,290.795 285.938,293.576 284.675 C 295.395 283.849,295.960 282.330,295.655 279.087 C 294.604 267.941,287.955 256.487,277.381 247.604 C 275.509 246.032,275.746 246.074,274.706 247.126 M152.167 267.399 C 143.657 275.961,138.573 285.757,137.745 295.189 C 137.455 298.500,137.963 299.948,139.734 300.851 C 142.440 302.232,145.311 300.221,145.323 296.937 C 145.354 288.477,152.029 277.089,161.533 269.282 L 163.646 267.546 159.534 266.196 C 157.273 265.454,155.308 264.798,155.169 264.739 C 155.024 264.678,153.746 265.809,152.167 267.399 M241.779 265.754 C 240.130 266.324,238.220 266.946,237.536 267.137 L 236.291 267.484 238.235 269.049 C 247.792 276.736,253.907 287.039,254.645 296.695 C 254.933 300.463,257.404 302.312,260.228 300.871 C 264.357 298.763,261.900 286.585,255.322 276.562 C 252.727 272.607,245.701 264.575,244.940 264.693 C 244.851 264.707,243.428 265.184,241.779 265.754 " stroke="none" fill="#d31b23" fill-rule="evenodd"></path><path id="path1" d="M143.601 206.510 C 138.963 207.886,138.237 214.201,142.420 216.787 L 143.397 217.391 152.008 217.391 C 160.169 217.391,160.661 217.371,161.413 216.998 C 165.526 214.959,165.535 209.029,161.428 206.830 C 160.542 206.355,145.060 206.078,143.601 206.510 M239.224 206.580 C 234.524 208.283,234.127 214.787,238.587 216.998 C 239.339 217.371,239.831 217.391,247.976 217.391 L 256.572 217.391 257.500 216.845 C 261.342 214.587,261.306 209.130,257.436 206.986 L 256.372 206.397 248.176 206.351 C 241.645 206.315,239.826 206.361,239.224 206.580 M191.113 236.898 C 173.714 237.628,156.993 240.679,144.978 245.316 C 142.471 246.283,142.449 246.104,145.278 247.711 C 176.443 265.415,222.952 265.559,254.124 248.047 C 257.610 246.088,257.584 246.319,254.452 245.129 C 238.222 238.964,214.709 235.908,191.113 236.898 " stroke="none" fill="#efdb9c" fill-rule="evenodd"></path><path id="path2" d="M54.373 87.580 C 28.690 90.532,13.353 120.247,21.278 151.702 C 28.286 179.519,44.770 196.502,64.759 196.502 L 66.330 196.502 68.109 198.792 C 78.282 211.894,92.105 220.958,108.012 224.959 C 110.355 225.548,109.923 225.145,111.044 227.786 C 112.221 230.559,113.418 232.792,115.211 235.560 L 116.621 237.736 115.635 238.558 C 101.642 250.227,92.954 266.383,92.954 280.735 C 92.954 300.839,121.536 301.927,123.164 281.885 C 123.823 273.771,129.882 265.049,138.983 259.113 L 140.535 258.101 142.112 258.935 L 143.688 259.769 142.158 261.369 C 128.813 275.322,122.482 296.566,128.872 305.951 C 137.216 318.204,155.645 312.799,156.639 297.806 C 157.287 288.025,167.180 276.595,179.159 271.787 C 180.776 271.138,180.992 271.099,182.057 271.264 C 191.337 272.701,206.783 272.752,216.992 271.380 L 218.991 271.112 220.790 271.808 C 232.182 276.216,243.278 288.776,243.278 297.263 C 243.278 313.270,265.087 318.562,272.030 304.240 C 276.837 294.324,270.540 275.085,258.094 261.665 L 256.329 259.762 257.886 258.924 L 259.442 258.087 261.385 259.386 C 269.936 265.103,276.072 273.801,276.675 281.059 C 276.935 284.190,277.340 285.929,278.242 287.785 C 285.200 302.100,306.466 297.563,307.004 281.649 C 307.484 267.443,298.724 250.683,284.608 238.800 C 283.212 237.626,283.196 237.958,284.765 235.571 C 286.134 233.488,288.465 229.032,289.257 226.987 C 289.859 225.430,289.921 225.360,290.835 225.214 C 304.858 222.971,323.853 210.405,332.944 197.356 L 333.533 196.510 335.172 196.506 C 354.544 196.456,370.254 181.036,377.933 154.535 C 388.006 119.771,370.488 87.496,341.529 87.465 C 306.769 87.429,281.019 134.671,296.078 170.852 C 298.018 175.515,300.175 179.047,303.790 183.486 L 304.341 184.162 302.845 185.568 C 299.533 188.681,291.190 193.902,289.526 193.903 C 289.400 193.903,288.621 192.531,287.795 190.855 C 273.691 162.223,230.649 144.718,185.709 149.336 C 150.653 152.938,122.227 169.303,111.603 192.001 C 110.586 194.175,110.785 194.101,108.595 193.115 C 104.056 191.071,100.168 188.482,96.902 185.330 C 95.507 183.984,95.499 184.259,96.989 182.483 C 108.420 168.865,111.404 146.267,104.452 125.971 C 96.083 101.537,74.813 85.232,54.373 87.580 M63.591 99.155 C 87.097 103.945,103.273 137.467,94.677 163.574 C 90.053 177.621,80.094 185.146,66.067 185.194 C 50.530 185.248,39.314 173.816,32.859 151.346 C 27.806 133.757,30.738 116.692,40.569 106.477 C 42.663 104.302,46.362 101.468,46.685 101.791 C 46.734 101.840,49.431 111.356,52.677 122.939 C 55.924 134.521,58.752 144.274,58.962 144.612 C 61.215 148.253,66.829 147.994,68.691 144.164 C 69.661 142.169,69.772 142.674,63.385 119.902 C 60.187 108.501,57.571 99.020,57.571 98.832 C 57.571 98.390,60.644 98.555,63.591 99.155 M342.429 98.810 C 342.429 98.953,339.810 108.376,336.610 119.750 C 330.268 142.289,330.327 142.024,331.180 143.951 C 332.950 147.952,338.756 148.355,340.939 144.629 C 341.286 144.037,343.398 136.825,347.322 122.832 C 350.547 111.330,353.240 101.865,353.306 101.799 C 353.509 101.597,356.732 103.902,358.319 105.384 C 368.642 115.025,372.334 133.338,367.398 150.425 C 359.619 177.356,345.948 188.688,326.437 184.380 C 306.260 179.926,297.202 153.919,306.778 127.936 C 312.342 112.840,325.092 100.792,337.431 98.973 C 338.256 98.851,339.155 98.719,339.430 98.679 C 340.752 98.485,342.429 98.558,342.429 98.810 M212.394 160.406 C 269.900 166.646,299.190 205.725,269.469 236.556 C 244.039 262.936,187.638 269.245,149.425 249.984 C 112.185 231.212,108.287 197.674,140.830 176.014 C 154.341 167.021,171.120 161.696,190.905 160.122 C 194.432 159.841,208.960 160.033,212.394 160.406 M150.990 188.113 C 147.885 188.735,146.627 190.635,146.627 194.703 C 146.627 198.944,148.180 200.973,151.641 201.251 C 155.452 201.557,157.516 199.228,157.519 194.616 C 157.523 189.857,154.971 187.315,150.990 188.113 M246.686 188.122 C 241.446 189.162,240.516 198.151,245.377 200.765 C 248.217 202.292,252.278 200.511,253.202 197.334 C 254.768 191.946,251.401 187.187,246.686 188.122 M92.554 196.527 C 96.537 199.629,101.637 202.559,105.930 204.213 L 107.965 204.998 107.823 206.497 C 107.744 207.321,107.678 209.143,107.675 210.545 C 107.672 211.947,107.614 213.093,107.546 213.093 C 107.274 213.093,103.948 211.907,102.292 211.220 C 94.161 207.844,86.537 202.533,80.708 196.182 L 79.094 194.425 80.777 193.864 C 81.702 193.556,83.403 192.831,84.558 192.254 L 86.657 191.204 88.756 193.204 C 89.910 194.304,91.619 195.799,92.554 196.527 M315.384 192.266 C 316.465 192.794,318.090 193.490,318.995 193.811 C 319.899 194.133,320.640 194.487,320.640 194.599 C 320.642 194.968,314.182 201.194,312.244 202.693 C 306.678 206.997,295.079 213.093,292.457 213.093 C 292.329 213.093,292.254 212.034,292.254 210.224 C 292.254 208.646,292.200 206.825,292.134 206.176 L 292.014 204.998 293.783 204.319 C 300.006 201.934,307.467 197.086,311.938 192.522 C 313.363 191.067,312.990 191.095,315.384 192.266 M182.609 193.879 C 179.425 194.720,177.936 197.381,178.509 201.207 C 179.902 210.497,189.672 215.551,198.101 211.343 L 200.000 210.395 201.899 211.352 C 210.809 215.842,221.388 209.572,221.560 199.700 C 221.689 192.273,211.318 191.566,210.560 198.950 C 210.160 202.851,206.036 202.706,205.479 198.771 C 204.844 194.290,200.157 192.257,196.563 194.903 C 195.544 195.653,194.503 197.592,194.503 198.739 C 194.503 202.672,189.919 202.818,189.419 198.901 C 188.971 195.384,185.791 193.039,182.609 193.879 M128.877 250.142 L 130.317 251.305 128.277 252.928 C 118.900 260.389,112.820 270.706,111.978 280.587 C 111.446 286.823,104.148 286.839,104.148 280.604 C 104.148 270.261,111.234 257.259,121.825 248.167 L 124.215 246.116 125.825 247.548 C 126.711 248.335,128.084 249.503,128.877 250.142 M277.637 247.713 C 288.016 256.358,295.193 268.963,295.796 279.603 C 296.015 283.480,294.010 285.796,291.074 285.058 C 288.923 284.518,288.200 283.314,287.876 279.734 C 287.043 270.511,280.488 259.725,271.494 252.774 C 269.399 251.154,269.484 251.300,270.316 250.731 C 270.673 250.488,271.999 249.391,273.263 248.294 C 276.015 245.906,275.543 245.968,277.637 247.713 M157.161 265.337 C 158.184 265.705,160.010 266.301,161.219 266.662 C 164.064 267.509,164.027 267.373,161.878 269.076 C 152.679 276.366,146.286 286.892,145.505 296.034 C 145.199 299.608,144.269 301.024,142.004 301.364 C 139.081 301.802,137.348 299.533,137.605 295.606 C 138.220 286.218,143.619 275.773,152.330 267.116 C 155.146 264.318,154.744 264.467,157.161 265.337 M248.098 267.616 C 256.574 276.255,261.459 285.693,262.315 295.080 C 262.582 298.010,262.433 298.822,261.412 299.985 C 258.616 303.169,254.473 300.936,254.473 296.245 C 254.473 288.235,247.278 276.308,238.026 268.983 C 237.066 268.223,236.330 267.551,236.391 267.491 C 236.544 267.338,244.505 264.713,244.892 264.688 C 245.064 264.677,246.507 265.995,248.098 267.616 " stroke="none" fill="#040404" fill-rule="evenodd"></path><path id="path3" d="M58.116 98.695 C 58.471 98.739,59.101 98.740,59.516 98.697 C 59.931 98.653,59.640 98.617,58.871 98.616 C 58.101 98.615,57.762 98.651,58.116 98.695 M340.375 98.695 C 340.730 98.739,341.360 98.740,341.775 98.697 C 342.189 98.653,341.899 98.617,341.129 98.616 C 340.360 98.615,340.020 98.651,340.375 98.695 M357.421 104.610 C 357.421 104.645,357.714 104.937,358.071 105.260 L 358.721 105.847 358.134 105.197 C 357.586 104.592,357.421 104.456,357.421 104.610 M79.760 107.801 C 79.760 107.831,80.457 108.528,81.309 109.350 L 82.859 110.845 81.364 109.295 C 79.976 107.856,79.760 107.655,79.760 107.801 M318.441 109.445 C 317.622 110.270,316.997 110.945,317.051 110.945 C 317.106 110.945,317.822 110.270,318.641 109.445 C 319.460 108.621,320.085 107.946,320.030 107.946 C 319.975 107.946,319.260 108.621,318.441 109.445 M30.449 132.934 C 30.449 133.648,30.485 133.941,30.529 133.583 C 30.574 133.226,30.574 132.641,30.529 132.284 C 30.485 131.927,30.449 132.219,30.449 132.934 M369.495 134.933 C 369.495 136.527,369.526 137.179,369.564 136.382 C 369.602 135.585,369.602 134.280,369.564 133.483 C 369.526 132.686,369.495 133.338,369.495 134.933 M30.450 137.031 C 30.451 137.801,30.487 138.091,30.531 137.677 C 30.574 137.262,30.573 136.632,30.529 136.277 C 30.485 135.923,30.450 136.262,30.450 137.031 M69.225 141.729 C 69.225 142.334,69.263 142.581,69.309 142.279 C 69.354 141.977,69.354 141.482,69.309 141.179 C 69.263 140.877,69.225 141.124,69.225 141.729 M303.095 144.128 C 303.095 144.513,303.136 144.670,303.186 144.478 C 303.237 144.285,303.237 143.971,303.186 143.778 C 303.136 143.586,303.095 143.743,303.095 144.128 M96.798 144.528 C 96.798 144.913,96.839 145.070,96.889 144.878 C 96.940 144.685,96.940 144.370,96.889 144.178 C 96.839 143.986,96.798 144.143,96.798 144.528 M302.920 148.426 C 302.919 149.415,302.953 149.845,302.995 149.381 C 303.037 148.917,303.037 148.108,302.996 147.582 C 302.954 147.057,302.920 147.436,302.920 148.426 M96.798 152.324 C 96.798 152.709,96.839 152.866,96.889 152.674 C 96.940 152.481,96.940 152.166,96.889 151.974 C 96.839 151.782,96.798 151.939,96.798 152.324 M303.095 152.724 C 303.095 153.108,303.136 153.266,303.186 153.073 C 303.237 152.881,303.237 152.566,303.186 152.374 C 303.136 152.181,303.095 152.339,303.095 152.724 M193.353 160.063 C 193.656 160.109,194.150 160.109,194.453 160.063 C 194.755 160.017,194.508 159.980,193.903 159.980 C 193.298 159.980,193.051 160.017,193.353 160.063 M205.547 160.063 C 205.850 160.109,206.344 160.109,206.647 160.063 C 206.949 160.017,206.702 159.980,206.097 159.980 C 205.492 159.980,205.245 160.017,205.547 160.063 M190.257 160.261 C 190.506 160.309,190.866 160.307,191.057 160.257 C 191.248 160.207,191.044 160.168,190.605 160.170 C 190.165 160.173,190.009 160.214,190.257 160.261 M209.048 160.261 C 209.296 160.309,209.656 160.307,209.847 160.257 C 210.039 160.207,209.835 160.168,209.395 160.170 C 208.956 160.173,208.799 160.214,209.048 160.261 M187.756 160.458 C 187.949 160.508,188.263 160.508,188.456 160.458 C 188.648 160.407,188.491 160.366,188.106 160.366 C 187.721 160.366,187.564 160.407,187.756 160.458 M46.277 176.912 C 47.151 177.791,47.912 178.511,47.967 178.511 C 48.022 178.511,47.351 177.791,46.477 176.912 C 45.602 176.032,44.842 175.312,44.787 175.312 C 44.732 175.312,45.402 176.032,46.277 176.912 M353.418 177.061 L 352.124 178.411 353.473 177.117 C 354.215 176.406,354.823 175.799,354.823 175.768 C 354.823 175.621,354.619 175.808,353.418 177.061 M313.343 177.311 C 313.773 177.751,314.169 178.111,314.224 178.111 C 314.279 178.111,313.973 177.751,313.543 177.311 C 313.114 176.872,312.717 176.512,312.662 176.512 C 312.608 176.512,312.914 176.872,313.343 177.311 M132.323 182.659 L 131.634 183.408 132.384 182.719 C 133.082 182.078,133.225 181.909,133.073 181.909 C 133.039 181.909,132.702 182.246,132.323 182.659 M268.766 183.908 C 269.751 184.898,270.601 185.707,270.656 185.707 C 270.711 185.707,269.950 184.898,268.966 183.908 C 267.981 182.919,267.130 182.109,267.075 182.109 C 267.020 182.109,267.781 182.919,268.766 183.908 M129.524 185.457 L 128.836 186.207 129.585 185.518 C 130.283 184.877,130.427 184.708,130.274 184.708 C 130.241 184.708,129.903 185.045,129.524 185.457 M63.418 185.245 C 63.611 185.296,63.926 185.296,64.118 185.245 C 64.310 185.195,64.153 185.154,63.768 185.154 C 63.383 185.154,63.226 185.195,63.418 185.245 M67.616 185.245 C 67.809 185.296,68.123 185.296,68.316 185.245 C 68.508 185.195,68.351 185.154,67.966 185.154 C 67.581 185.154,67.424 185.195,67.616 185.245 M331.587 185.249 C 331.835 185.297,332.195 185.295,332.386 185.245 C 332.577 185.195,332.374 185.156,331.934 185.158 C 331.494 185.160,331.338 185.201,331.587 185.249 M335.784 185.249 C 336.033 185.297,336.393 185.295,336.584 185.245 C 336.775 185.195,336.572 185.156,336.132 185.158 C 335.692 185.160,335.536 185.201,335.784 185.249 M87.856 192.504 C 88.620 193.273,89.290 193.903,89.345 193.903 C 89.400 193.903,88.820 193.273,88.056 192.504 C 87.292 191.734,86.622 191.104,86.567 191.104 C 86.512 191.104,87.092 191.734,87.856 192.504 M311.938 192.554 L 310.745 193.803 311.994 192.610 C 312.681 191.954,313.243 191.392,313.243 191.361 C 313.243 191.213,313.046 191.393,311.938 192.554 M157.597 194.703 C 157.597 195.967,157.629 196.484,157.669 195.852 C 157.709 195.220,157.709 194.185,157.669 193.553 C 157.629 192.921,157.597 193.438,157.597 194.703 M82.259 197.901 C 82.688 198.341,83.085 198.701,83.140 198.701 C 83.195 198.701,82.888 198.341,82.459 197.901 C 82.029 197.461,81.633 197.101,81.578 197.101 C 81.523 197.101,81.829 197.461,82.259 197.901 M194.349 199.100 C 194.349 199.485,194.390 199.643,194.441 199.450 C 194.491 199.258,194.491 198.943,194.441 198.751 C 194.390 198.558,194.349 198.716,194.349 199.100 M251.762 199.750 L 251.174 200.400 251.824 199.813 C 252.430 199.265,252.566 199.100,252.411 199.100 C 252.377 199.100,252.084 199.393,251.762 199.750 M107.608 208.396 C 107.609 209.055,107.647 209.301,107.691 208.942 C 107.736 208.583,107.735 208.043,107.689 207.743 C 107.643 207.442,107.607 207.736,107.608 208.396 M118.791 208.396 C 118.793 208.836,118.834 208.992,118.882 208.743 C 118.930 208.495,118.928 208.135,118.878 207.944 C 118.828 207.753,118.789 207.956,118.791 208.396 M292.297 210.445 C 292.258 212.852,292.286 213.093,292.604 213.090 C 292.846 213.088,292.878 213.040,292.710 212.933 C 292.546 212.828,292.446 211.965,292.404 210.287 L 292.340 207.796 292.297 210.445 M217.491 208.996 C 217.006 209.490,216.653 209.895,216.708 209.895 C 216.763 209.895,217.206 209.490,217.691 208.996 C 218.177 208.501,218.529 208.096,218.474 208.096 C 218.419 208.096,217.977 208.501,217.491 208.996 M281.117 208.996 C 281.118 209.545,281.157 209.746,281.203 209.443 C 281.249 209.139,281.248 208.689,281.200 208.443 C 281.153 208.197,281.115 208.446,281.117 208.996 M281.119 212.094 C 281.119 212.699,281.157 212.946,281.203 212.644 C 281.248 212.341,281.248 211.847,281.203 211.544 C 281.157 211.242,281.119 211.489,281.119 212.094 M107.546 212.177 C 107.546 212.553,107.434 212.906,107.296 212.961 C 107.147 213.021,107.187 213.068,107.396 213.078 C 107.674 213.090,107.746 212.928,107.746 212.294 C 107.746 211.854,107.701 211.494,107.646 211.494 C 107.591 211.494,107.546 211.802,107.546 212.177 M118.791 212.594 C 118.793 213.033,118.834 213.190,118.882 212.941 C 118.930 212.693,118.928 212.333,118.878 212.142 C 118.828 211.950,118.789 212.154,118.791 212.594 M270.352 235.532 L 269.765 236.182 270.415 235.595 C 271.020 235.048,271.156 234.883,271.002 234.883 C 270.968 234.883,270.675 235.175,270.352 235.532 M267.256 238.631 L 266.567 239.380 267.316 238.691 C 267.729 238.313,268.066 237.975,268.066 237.942 C 268.066 237.789,267.897 237.933,267.256 238.631 M118.637 251.124 L 116.842 252.974 118.691 251.179 C 120.408 249.511,120.631 249.275,120.486 249.275 C 120.456 249.275,119.624 250.107,118.637 251.124 M281.159 251.074 C 281.923 251.844,282.593 252.474,282.648 252.474 C 282.703 252.474,282.123 251.844,281.359 251.074 C 280.596 250.305,279.926 249.675,279.871 249.675 C 279.816 249.675,280.396 250.305,281.159 251.074 M273.663 254.535 C 273.663 254.570,273.956 254.862,274.313 255.185 L 274.963 255.772 274.375 255.122 C 273.828 254.517,273.663 254.381,273.663 254.535 M276.662 257.534 C 276.662 257.568,276.954 257.861,277.311 258.183 L 277.961 258.771 277.374 258.121 C 276.827 257.515,276.662 257.379,276.662 257.534 M198.460 261.218 C 199.373 261.255,200.812 261.255,201.659 261.218 C 202.506 261.181,201.759 261.150,200.000 261.150 C 198.241 261.151,197.548 261.181,198.460 261.218 M242.279 272.764 C 242.652 273.148,243.002 273.463,243.057 273.463 C 243.112 273.463,242.852 273.148,242.479 272.764 C 242.106 272.379,241.756 272.064,241.701 272.064 C 241.646 272.064,241.906 272.379,242.279 272.764 M104.194 279.060 C 104.194 279.445,104.235 279.603,104.286 279.410 C 104.336 279.218,104.336 278.903,104.286 278.711 C 104.235 278.518,104.194 278.676,104.194 279.060 M295.707 279.460 C 295.707 279.955,295.746 280.157,295.793 279.910 C 295.841 279.663,295.841 279.258,295.793 279.010 C 295.746 278.763,295.707 278.966,295.707 279.460 M287.906 279.760 C 287.909 280.200,287.950 280.356,287.997 280.108 C 288.045 279.859,288.043 279.499,287.993 279.308 C 287.943 279.117,287.904 279.320,287.906 279.760 M137.586 295.852 C 137.586 296.347,137.625 296.549,137.672 296.302 C 137.720 296.054,137.720 295.650,137.672 295.402 C 137.625 295.155,137.586 295.357,137.586 295.852 M145.382 296.252 C 145.382 296.747,145.421 296.949,145.468 296.702 C 145.516 296.454,145.516 296.049,145.468 295.802 C 145.421 295.555,145.382 295.757,145.382 296.252 M262.336 296.852 C 262.336 297.676,262.371 298.013,262.414 297.601 C 262.458 297.189,262.458 296.514,262.414 296.102 C 262.371 295.690,262.336 296.027,262.336 296.852 M254.535 296.752 C 254.536 297.411,254.573 297.657,254.618 297.298 C 254.662 296.938,254.661 296.399,254.616 296.098 C 254.570 295.798,254.534 296.092,254.535 296.752 M141.082 301.391 C 141.330 301.439,141.690 301.437,141.881 301.387 C 142.073 301.337,141.869 301.298,141.429 301.300 C 140.990 301.302,140.833 301.343,141.082 301.391 M258.223 301.391 C 258.472 301.439,258.832 301.437,259.023 301.387 C 259.214 301.337,259.010 301.298,258.571 301.300 C 258.131 301.302,257.975 301.343,258.223 301.391 " stroke="none" fill="#4c0e0d" fill-rule="evenodd"></path><path id="path4" d="M206.147 261.007 C 206.339 261.058,206.654 261.058,206.847 261.007 C 207.039 260.957,206.882 260.916,206.497 260.916 C 206.112 260.916,205.955 260.957,206.147 261.007 " stroke="none" fill="#544c34" fill-rule="evenodd"></path></g></svg>